<svg id="Layer_1" data-name="Layer 1" xmlns="http://www.w3.org/2000/svg" viewBox="0 0 181.54 40"><defs><style>.cls-1{fill:#cdde6a;}.cls-2{fill:#fff;}</style></defs><g id="Group_4" data-name="Group 4"><path id="Path_1" data-name="Path 1" class="cls-1" d="M884.89,479.75h1.44c1.2,0,2.17-2.61,2.17-5.84s-1-5.85-2.17-5.85h-1.44c1,1.24,1.44,3.6,1.44,5.85S885.87,478.52,884.89,479.75Z" transform="translate(-855.81 -468.06)"/><path id="Path_2" data-name="Path 2" class="cls-1" d="M859.43,468.06H858c-1.2,0-2.18,2.62-2.18,5.85s1,5.84,2.18,5.84h1.44c-1-1.23-1.44-3.6-1.44-5.84S858.45,469.3,859.43,468.06Z" transform="translate(-855.81 -468.06)"/><path id="Path_3" data-name="Path 3" class="cls-1" d="M900.78,488.77s-8.29-10.67-16.58,0c0,0,5.07.31,6.14,3.87,0,0-4.6-7.11-14.73.92l-2.76,1.86,2-2.63s-.62-4.79-3.07-7.73v-5.77l-.88-.76.88.5s3.33,0,4.72-2.51h3.78c.29,2.79,1.24,4.83,2.36,4.83,1.35,0,2.45-3,2.45-6.64s-1.1-6.65-2.45-6.65c-1.12,0-2.07,2.05-2.36,4.83H877a5.81,5.81,0,0,0-1.75-2.85,1.57,1.57,0,0,0-1.89-.18l-1.54,1a6,6,0,0,0-4,2.06h-4.11c-.3-2.79-1.24-4.84-2.36-4.84-1.36,0-2.46,3-2.46,6.65s1.1,6.64,2.46,6.64c1.12,0,2.06-2,2.36-4.83h3.06c-.76,5.08-4.3,16.66.13,23.84,4.76,7.73,2.72,5.4,4.76,7,2.57,2,6.1-.64,9.59-.46C888.89,507.24,901.58,505.47,900.78,488.77Zm-20.36,14.9c7.38.32,15.65-2.17,18.59-13-2.84,12.61-11.54,14.1-18.59,13Z" transform="translate(-855.81 -468.06)"/></g><path class="cls-2" d="M912.43,475.88h12a7.91,7.91,0,0,1,6.22,2.37,9.81,9.81,0,0,1,1.08,10.52,7.41,7.41,0,0,1-3,3,9,9,0,0,1-4.48,1.08h-5v6.23h-6.77Zm10.26,11.77a3,3,0,0,0,2.33-.88,3.37,3.37,0,0,0,.81-2.36,3.75,3.75,0,0,0-.74-2.47,2.75,2.75,0,0,0-2.22-.88H919.2v6.59Z" transform="translate(-855.81 -468.06)"/><path class="cls-2" d="M936.81,496.56q-3-2.87-3-9,0-6.33,3-9.18t8.87-2.84q5.91,0,8.88,2.86t3,9.16q0,6.12-3,9c-2,1.92-4.95,2.88-8.86,2.88S938.8,498.47,936.81,496.56Zm12.61-4.36a7.43,7.43,0,0,0,1.17-4.66c0-2.25-.38-3.86-1.15-4.82a5.68,5.68,0,0,0-7.56,0c-.77,1-1.15,2.57-1.15,4.82a7.43,7.43,0,0,0,1.17,4.66,5.57,5.57,0,0,0,7.52,0Z" transform="translate(-855.81 -468.06)"/><path class="cls-2" d="M957,475.88h6.62l2.63,12.27,2.55-8.78v-3.49h5.55l3.53,12.31,2.77-12.31h6.62l-5.36,23.18h-6.12l-3.49-12-3.78,12h-6.12Z" transform="translate(-855.81 -468.06)"/><path class="cls-1" d="M989.76,475.88h17.43v5H996.53v4h9.29V490h-9.29v9h-6.77Z" transform="translate(-855.81 -468.06)"/><path class="cls-1" d="M1009,475.88h6.76v23.18H1009Z" transform="translate(-855.81 -468.06)"/><path class="cls-1" d="M1024.07,480.92h-6.52v-5h19.8v5h-6.51v18.14h-6.77Z" transform="translate(-855.81 -468.06)"/></svg>